<svg xmlns="http://www.w3.org/2000/svg" xmlns:xlink="http://www.w3.org/1999/xlink" width="1000" zoomAndPan="magnify" viewBox="0 0 750 187.499995" height="250" preserveAspectRatio="xMidYMid meet" version="1.0"><defs><g/></defs><g fill="#344f8e" fill-opacity="1"><g transform="translate(5.485383, 173.995503)"><g><path d="M 7.0625 -159.671875 L 51.109375 -159.671875 C 62.515625 -159.671875 71.066406 -156.507812 76.765625 -150.1875 C 82.460938 -143.863281 85.375 -134.507812 85.5 -122.125 L 85.875 -47.390625 C 86 -31.660156 83.269531 -19.828125 77.6875 -11.890625 C 72.113281 -3.960938 62.882812 0 50 0 L 7.0625 0 Z M 44.796875 -28.25 C 50.617188 -28.25 53.53125 -31.097656 53.53125 -36.796875 L 53.53125 -119.140625 C 53.53125 -122.734375 53.25 -125.425781 52.6875 -127.21875 C 52.132812 -129.019531 51.113281 -130.226562 49.625 -130.84375 C 48.132812 -131.46875 45.84375 -131.78125 42.75 -131.78125 L 39.21875 -131.78125 L 39.21875 -28.25 Z M 44.796875 -28.25 "/></g></g></g><g fill="#344f8e" fill-opacity="1"><g transform="translate(97.123926, 173.995503)"><g><path d="M 2.78125 0 L 18.21875 -159.671875 L 72.3125 -159.671875 L 87.546875 0 L 57.25 0 L 55.015625 -25.84375 L 35.6875 -25.84375 L 33.828125 0 Z M 38.109375 -51.296875 L 52.609375 -51.296875 L 45.546875 -132.53125 L 44.046875 -132.53125 Z M 38.109375 -51.296875 "/></g></g></g><g fill="#344f8e" fill-opacity="1"><g transform="translate(187.27543, 173.995503)"><g><path d="M 39.96875 1.484375 C 28.4375 1.484375 19.851562 -2.570312 14.21875 -10.6875 C 8.582031 -18.800781 5.765625 -31.097656 5.765625 -47.578125 L 5.765625 -116.359375 C 5.765625 -131.109375 9.046875 -142.257812 15.609375 -149.8125 C 22.179688 -157.375 31.972656 -161.15625 44.984375 -161.15625 C 55.515625 -161.15625 63.691406 -159.046875 69.515625 -154.828125 C 75.335938 -150.617188 79.363281 -144.484375 81.59375 -136.421875 C 83.820312 -128.367188 84.9375 -118.023438 84.9375 -105.390625 L 53.71875 -105.390625 L 53.71875 -119.703125 C 53.71875 -123.546875 53.191406 -126.519531 52.140625 -128.625 C 51.085938 -130.726562 49.195312 -131.78125 46.46875 -131.78125 C 40.394531 -131.78125 37.359375 -127.816406 37.359375 -119.890625 L 37.359375 -42.5625 C 37.359375 -37.726562 37.976562 -34.070312 39.21875 -31.59375 C 40.457031 -29.113281 42.625 -27.875 45.71875 -27.875 C 48.820312 -27.875 50.992188 -29.113281 52.234375 -31.59375 C 53.472656 -34.070312 54.09375 -37.726562 54.09375 -42.5625 L 54.09375 -65.421875 L 45.546875 -65.421875 L 45.546875 -92.9375 L 84.578125 -92.9375 L 84.578125 0 L 71.75 0 L 66.359375 -13.390625 C 60.660156 -3.472656 51.863281 1.484375 39.96875 1.484375 Z M 39.96875 1.484375 "/></g></g></g><g fill="#344f8e" fill-opacity="1"><g transform="translate(277.426933, 173.995503)"><g><path d="M 45.171875 1.484375 C 32.285156 1.484375 22.492188 -2.445312 15.796875 -10.3125 C 9.109375 -18.1875 5.765625 -29.25 5.765625 -43.5 L 5.765625 -119.515625 C 5.765625 -133.273438 9.109375 -143.65625 15.796875 -150.65625 C 22.492188 -157.65625 32.285156 -161.15625 45.171875 -161.15625 C 58.054688 -161.15625 67.84375 -157.65625 74.53125 -150.65625 C 81.226562 -143.65625 84.578125 -133.273438 84.578125 -119.515625 L 84.578125 -43.5 C 84.578125 -29.125 81.226562 -18.03125 74.53125 -10.21875 C 67.84375 -2.414062 58.054688 1.484375 45.171875 1.484375 Z M 45.171875 -27.875 C 48.015625 -27.875 49.929688 -29.113281 50.921875 -31.59375 C 51.921875 -34.070312 52.421875 -37.539062 52.421875 -42 L 52.421875 -120.078125 C 52.421875 -123.546875 51.953125 -126.363281 51.015625 -128.53125 C 50.085938 -130.695312 48.203125 -131.78125 45.359375 -131.78125 C 40.023438 -131.78125 37.359375 -127.753906 37.359375 -119.703125 L 37.359375 -41.828125 C 37.359375 -37.234375 37.914062 -33.757812 39.03125 -31.40625 C 40.144531 -29.050781 42.191406 -27.875 45.171875 -27.875 Z M 45.171875 -27.875 "/></g></g></g><g fill="#344f8e" fill-opacity="1"><g transform="translate(367.76432, 173.995503)"><g><path d="M 5.015625 0 L 5.015625 -27.140625 L 37.546875 -27.140625 L 37.546875 0 Z M 5.015625 0 "/></g></g></g><g fill="#344f8e" fill-opacity="1"><g transform="translate(743.317918, 13.279781)"><g><path d="M -7.0625 159.671875 L -56.140625 159.671875 C -63.941406 159.671875 -69.976562 157.90625 -74.25 154.375 C -78.53125 150.84375 -81.410156 145.882812 -82.890625 139.5 C -84.378906 133.113281 -85.125 124.96875 -85.125 115.0625 C -85.125 106.007812 -83.945312 98.941406 -81.59375 93.859375 C -79.238281 88.785156 -75.148438 85.253906 -69.328125 83.265625 C -74.160156 82.273438 -77.660156 79.859375 -79.828125 76.015625 C -82.003906 72.179688 -83.09375 66.976562 -83.09375 60.40625 L -82.71875 0 L -51.484375 0 L -51.484375 62.453125 C -51.484375 66.910156 -50.613281 69.757812 -48.875 71 C -47.144531 72.238281 -43.988281 72.859375 -39.40625 72.859375 L -39.40625 0 L -7.0625 0 Z M -47.21875 100.5625 C -51.675781 100.5625 -53.90625 105.394531 -53.90625 115.0625 C -53.90625 119.269531 -53.71875 122.425781 -53.34375 124.53125 C -52.96875 126.644531 -52.285156 128.101562 -51.296875 128.90625 C -50.304688 129.707031 -48.882812 130.109375 -47.03125 130.109375 L -39.59375 130.109375 L -39.59375 100.5625 Z M -47.21875 100.5625 "/></g></g></g><g fill="#344f8e" fill-opacity="1"><g transform="translate(654.65401, 13.279781)"><g><path d="M -7.0625 0 L -7.0625 159.671875 L -71 159.671875 L -71 128.8125 L -39.59375 128.8125 L -39.59375 97.765625 L -69.703125 97.765625 L -69.703125 67.65625 L -39.59375 67.65625 L -39.59375 31.046875 L -73.046875 31.046875 L -73.046875 0 Z M -7.0625 0 "/></g></g></g><g fill="#344f8e" fill-opacity="1"><g transform="translate(578.072216, 13.279781)"><g><path d="M -7.0625 0 L -7.0625 159.671875 L -71 159.671875 L -71 128.8125 L -39.59375 128.8125 L -39.59375 97.765625 L -69.703125 97.765625 L -69.703125 67.65625 L -39.59375 67.65625 L -39.59375 31.046875 L -73.046875 31.046875 L -73.046875 0 Z M -7.0625 0 "/></g></g></g><g fill="#344f8e" fill-opacity="1"><g transform="translate(501.490422, 13.279781)"><g><path d="M -7.0625 159.671875 L -50.375 159.671875 C -62.019531 159.671875 -70.472656 156.816406 -75.734375 151.109375 C -81.003906 145.410156 -83.640625 136.117188 -83.640625 123.234375 L -83.640625 116.171875 C -83.640625 100.929688 -78.1875 91.820312 -67.28125 88.84375 C -73.976562 87.113281 -78.6875 83.085938 -81.40625 76.765625 C -84.132812 70.441406 -85.5 62.078125 -85.5 51.671875 C -85.5 34.691406 -82.957031 21.832031 -77.875 13.09375 C -72.800781 4.363281 -63.632812 0 -50.375 0 L -7.0625 0 Z M -44.796875 99.625 C -47.523438 99.625 -49.382812 100.644531 -50.375 102.6875 C -51.363281 104.738281 -51.859375 107.625 -51.859375 111.34375 L -51.859375 127.328125 C -51.859375 132.523438 -49.566406 135.125 -44.984375 135.125 L -38.296875 135.125 L -38.296875 99.625 Z M -41.453125 28.0625 C -49.753906 28.0625 -53.90625 32.03125 -53.90625 39.96875 L -53.90625 59.859375 C -53.90625 64.679688 -53.191406 68.332031 -51.765625 70.8125 C -50.335938 73.289062 -47.828125 74.53125 -44.234375 74.53125 L -38.296875 74.53125 L -38.296875 28.25 Z M -41.453125 28.0625 "/></g></g></g></svg>